<svg xmlns="http://www.w3.org/2000/svg" width="1080" height="1920" viewBox="0 0 1080 1920" preserveAspectRatio="xMidYMid slice">
  <defs>
    <linearGradient id="g3" x1="50%" y1="0%" x2="50%" y2="100%">
      <stop offset="0%" stop-color="#e8c76b" stop-opacity="0.55"/>
      <stop offset="40%" stop-color="#736BFA"/>
      <stop offset="100%" stop-color="#362f87"/>
    </linearGradient>
  </defs>
  <rect width="1080" height="1920" fill="url(#g3)"/>
  <g opacity="0.28" fill="#fff">
    <path transform="translate(360,360) scale(3.4)" d="M12 4c-2 4-6 6-8 8 2 2 6 2 8 0-1-3-1-6 0-8zm8 0c2 4 6 6 8 8-2 2-6 2-8 0 1-3 1-6 0-8z"/>
    <path transform="translate(640,1180) scale(2.8)" d="M12 4c-2 4-6 6-8 8 2 2 6 2 8 0-1-3-1-6 0-8zm8 0c2 4 6 6 8 8-2 2-6 2-8 0 1-3 1-6 0-8z"/>
  </g>
</svg>
