<svg xmlns="http://www.w3.org/2000/svg" width="1080" height="1920" viewBox="0 0 1080 1920" preserveAspectRatio="xMidYMid slice">
  <defs>
    <linearGradient id="g1" x1="0%" y1="0%" x2="100%" y2="100%">
      <stop offset="0%" stop-color="#736BFA"/>
      <stop offset="45%" stop-color="#b8b3ff"/>
      <stop offset="100%" stop-color="#ffd6e8"/>
    </linearGradient>
  </defs>
  <rect width="1080" height="1920" fill="url(#g1)"/>
  <g opacity="0.35" fill="#fff">
    <path transform="translate(120,220) scale(3)" d="M12 4c-2 4-6 6-8 8 2 2 6 2 8 0-1-3-1-6 0-8zm8 0c2 4 6 6 8 8-2 2-6 2-8 0 1-3 1-6 0-8z"/>
    <path transform="translate(780,420) scale(2.4)" d="M12 4c-2 4-6 6-8 8 2 2 6 2 8 0-1-3-1-6 0-8zm8 0c2 4 6 6 8 8-2 2-6 2-8 0 1-3 1-6 0-8z"/>
    <path transform="translate(520,980) scale(4)" d="M12 4c-2 4-6 6-8 8 2 2 6 2 8 0-1-3-1-6 0-8zm8 0c2 4 6 6 8 8-2 2-6 2-8 0 1-3 1-6 0-8z"/>
  </g>
</svg>
