<svg xmlns="http://www.w3.org/2000/svg" width="1080" height="1920" viewBox="0 0 1080 1920" preserveAspectRatio="xMidYMid slice">
  <defs>
    <linearGradient id="g2" x1="0%" y1="100%" x2="100%" y2="0%">
      <stop offset="0%" stop-color="#4d3fd4"/>
      <stop offset="50%" stop-color="#9a92f7"/>
      <stop offset="100%" stop-color="#ffe8f4"/>
    </linearGradient>
  </defs>
  <rect width="1080" height="1920" fill="url(#g2)"/>
  <circle cx="180" cy="300" r="120" fill="#fff" opacity="0.12"/>
  <circle cx="900" cy="1500" r="200" fill="#fff" opacity="0.1"/>
  <g opacity="0.3" fill="#fff">
    <path transform="translate(700,260) scale(2.6)" d="M12 4c-2 4-6 6-8 8 2 2 6 2 8 0-1-3-1-6 0-8zm8 0c2 4 6 6 8 8-2 2-6 2-8 0 1-3 1-6 0-8z"/>
    <path transform="translate(200,1400) scale(3.2)" d="M12 4c-2 4-6 6-8 8 2 2 6 2 8 0-1-3-1-6 0-8zm8 0c2 4 6 6 8 8-2 2-6 2-8 0 1-3 1-6 0-8z"/>
  </g>
</svg>
